<?xml version="1.0" encoding="utf-8"?>
<!-- Generator: Adobe Illustrator 21.1.0, SVG Export Plug-In . SVG Version: 6.00 Build 0)  -->
<svg version="1.1" id="Layer_1" xmlns="http://www.w3.org/2000/svg" xmlns:xlink="http://www.w3.org/1999/xlink" x="0px" y="0px"
	 viewBox="0 0 651.7 212.6" style="enable-background:new 0 0 651.7 212.6;" xml:space="preserve">
<style type="text/css">
	.st0{fill:#FFFFFF;}
	.st1{fill:#E5CD9C;}
	.st2{fill:#E2BF81;}
</style>
<g>
	<g>
		<path class="st0" d="M436,80.7c9,0,15.4,3.2,19,9.7c3.6,6.5,5.4,16.9,5.4,31.4v17.6c0,7.5,0.5,13.2,1.5,17.2
			c0.3,0.9,1.9,1.8,5,2.6c1.9,0.5,4.2,0.7,5.8,1.8c1.2,0.8,3.3,4.5,0.7,5.1c-2,0.4-5-0.3-7.1-0.4c-2.3-0.1-4.6-0.2-6.8-0.3
			c-2-0.1-4.1-0.3-6.1-0.3c-1.9,0-3.9,0.2-5.8,0.3c-3.7,0.2-7.4,1.4-11.2,1.1c-2.5-0.2-6.3-2.2-3.8-5.4c1.1-1.4,5.3-1.4,7-1.9
			c2.8-0.8,4.3-1.7,4.5-2.6c0.9-3.7,1.4-8.3,1.4-13.6v-19.4c0-12-1.6-20.2-4.6-24.6c-3.1-4.4-8.1-6.6-15.1-6.6
			c-4.1,0-8.1,1.5-11.9,4.6c-3.8,3-5.7,5.8-5.7,8.2v34.1c0,7.5,0.5,13.2,1.5,17.2c0.3,0.9,1.9,1.8,5,2.6c3.6,1,8.4-0.1,7.5,5.4
			c-0.6,3.6-7.7,1.1-10.1,1c-3.6-0.2-7.3-0.5-10.9-0.5c-2.1,0-4.2,0.2-6.2,0.3c-2.3,0.1-4.6,0.2-6.9,0.3c-2.8,0.1-8.2,2.5-8.7-1.7
			c-0.7-4.7,4.6-4,7.6-4.8c3-0.8,4.7-1.7,4.9-2.6c0.9-3.7,1.4-8.3,1.4-13.6v-36.6c0-5-0.9-8.5-2.7-10.5c-1.3-1.5-2.9-2.6-4.7-3.2
			c-2.6-0.8-8.8,0.1-6.1-4.7c0.7-1.3,2-1.6,3.4-1.8c3.7-0.5,7.3-1.2,10.9-1.8c2.9-0.5,5.8-1,8.7-1.7c3.1-0.7,7.8-2.9,6.4,2.7
			c-0.5,3.6-0.8,6.2-0.8,7.7c0,0.5,0.1,0.8,0.4,0.8c0.1,0,0.3-0.1,0.6-0.4c3-3.1,7-6,12.1-8.8C426.5,82.1,431.4,80.7,436,80.7z"/>
		<path class="st0" d="M517,81.1c6.2,0,12.8,0.5,18.7,2.7c4.7,1.7,10.5,3.8,10.7,9.5c0.2,4.4-1.8,10.7-7.1,10.7
			c-2.2,0-3.9-0.5-5-1.5c-1.2-1-2.6-2.7-4.5-5.3c-4-5.9-8.8-8.9-14.3-8.9c-5.3,0-10.1,2.5-14.4,7.6c-4.3,5-6.5,12.5-6.5,22.5
			c0,10.3,2.5,18.9,7.7,25.8c5.1,6.8,12.2,10.3,21.2,10.3c2.7,0,5.3-0.3,7.7-0.8c2.5-0.5,4.6-1.1,6.3-1.8c1.7-0.7,3.2-1.4,4.5-2.1
			c2.1-1.2,5.7-5,5.7-0.5c0,1-0.4,2.2-1.2,3.5c-2.6,3.6-6.4,6.9-11.4,9.8c-5,2.9-10.5,4.4-16.5,4.4c-10.7,0-19.9-4-27.6-12.1
			c-7.7-8.1-11.5-17.9-11.5-29.5c0-11.9,3.2-22.2,9.7-30.9C495.6,85.5,504.9,81.1,517,81.1z"/>
		<path class="st0" d="M577.2,82.5c2.2,0,4.2-0.1,6.1-0.2c1.9-0.1,4-0.3,6.4-0.4c1.6-0.1,4.3-0.8,5.7,0.3c1,0.8,1.6,3.4,0.7,4.4
			c-0.9,1.1-2.4,0.8-3.6,1.1c-1.2,0.3-6,1.9-6,3.6v0.4c0,2.3,6.9,19.2,20.7,50.5L622,99.7c0.9-2.7,1.4-4.7,1.4-6c0-1.9-1-3.5-3-4.7
			c-2-1.2-4.8-1-6.9-1.9c-1.7-0.7-3.5-4.4-1-5.4c1.7-0.7,5.5,0.3,7.4,0.4c3.4,0.3,6.6,0.4,9.7,0.4c2.8,0,5.9-0.1,9.3-0.4
			c3.1-0.2,9.9-2,7.9,4c-0.6,1.6-6,2.1-7.6,2.8c-2.9,1.2-4.8,3-5.7,5.6L598.7,188c-3,8-6.3,13.6-10.1,16.8
			c-3.7,3.2-7.2,4.7-10.3,4.7c-2.7,0-4.7-0.8-6-2.5c-1.3-1.7-1.9-3.4-1.9-5c0-7.8,7.7-5.8,12.9-8.4c5.8-2.9,9.2-8.5,11.1-14.5
			c0.6-1.9,1.4-4.3,2.3-7c0.9-2.7,1.6-4.9,2.1-6.6l-27.7-67.8c-1.4-3.1-2.7-5.3-3.9-6.6c-1.2-1.2-2.9-2.1-5.3-2.9
			c-2.4-0.8-6-0.2-6.5-3.2c-0.7-4.3,3.2-3.5,6-3.4c2.8,0.1,5.6,0.3,8.5,0.4C572.4,82.3,574.8,82.5,577.2,82.5z"/>
		<path class="st0" d="M191.7,172.5c-0.6-0.1-3.2,2.4-3.8,2.8c-2.7,1.8-5.7,3.2-8.7,4.4c-6,2.2-12.4,3.2-18.8,3
			c-12.5-0.4-23.5-5.1-33.3-12.1c-17.6-13.3-28.9-34.4-36.3-46.6c-11.3-18.7-19.1-19.8-19.3-19.9c7.1-2.1,13.5-6.2,18.8-13.8
			c4.1-5.9,6.1-11.6,6.1-17c0-6.3-1.4-11.9-4.3-16.7c-7.3-12.3-23.5-18.8-37.6-18.8c-3.7,0-8.3,0.1-13.6,0.4
			c-5.3,0.3-9.9,0.4-13.7,0.4c-4.1-0.1-8.1-0.1-12.2-0.2c-2.9,0-5.9-1-8.8-0.5C5,38,3.7,38.4,3.1,39.7c-1.5,3.4,1.8,4,4.1,4.4
			c1.5,0.3,3,0.6,4.4,1C15.1,46,17,47,17.4,48c0.9,3.5,1.4,9,1.4,16.7v73.2c0,10.6-0.5,16.7-1.4,18.2c-0.6,1.2-2.6,2.1-5.8,2.9
			c-2.1,0.5-4.4,0.3-6.4,1.1c-2.9,1.2-2.9,5.7,0.5,6c2.6,0.2,5.4-0.2,8.1-0.3c4.6-0.2,9.3-0.4,13.9-0.6c3.2-0.1,6.6,0.1,9.8,0.3
			c2.7,0.1,5.4,0.2,8.1,0.4c1.8,0.1,5.6,1.5,7.2-0.3c1.3-1.4,0.4-4.3-1.1-5.3c-2.2-1.4-5.3-0.6-7.7-1.3c-3.9-1-6.2-2.4-6.9-4.1
			c-1-2.6-1.5-8.2-1.5-16.8v-28.5c0-1,0.3-1.8,0.8-2.3c3.7-3.7,11.7-0.7,15.5,1.3c11.4,5.8,18.8,21.3,25.7,31.5
			c10.7,15.8,21.8,32.9,38.1,43.7c17.4,11.5,43.3,14.8,61.9,4.3c4.3-2.4,8.4-5.3,11.9-8.9c1-1.1,2-2.2,2.8-3.5
			C192.9,174.8,193,172.8,191.7,172.5z M57.3,98h-4.8c-11.2,0-16.8-1.9-16.8-5.6V68.9c0-6.3,0.1-11,0.3-14c0.2-3,0.4-5,0.8-5.8
			c0.3-0.8,0.7-1.3,1.3-1.5c3.2-0.9,7.7-1.4,13.6-1.4c18.1,0,27.1,9,27.1,26.9c0,7.5-2.4,13.5-7.3,18C66.5,95.7,61.8,98,57.3,98z"/>
		<path class="st0" d="M140.5,120.6h48.8c2.2,0,3.7-0.3,4.5-0.9c0.8-0.6,1.2-2.2,1.2-4.7c0-3.6-0.5-7.3-1.6-10.9
			c-1.1-3.7-2.8-7.3-5.2-10.8c-2.4-3.5-5.8-6.5-10.4-8.7c-4.5-2.3-9.7-3.4-15.7-3.4c-11,0-20.1,3.9-27.4,11.8
			c-7.3,7.9-10.9,18.6-10.9,32.1c0,11.6,3.8,21.5,11.5,29.5c7.7,8.1,16.9,12.1,27.6,12.1c5.9,0,11.4-1.5,16.5-4.4
			c5-2.9,8.8-6.2,11.4-9.8c0.8-1.3,1.2-2.5,1.2-3.5c0-4.6-3.6-0.7-5.7,0.5c-1.2,0.7-2.7,1.4-4.5,2.1c-1.7,0.7-3.8,1.3-6.3,1.8
			c-2.5,0.5-5,0.8-7.7,0.8c-9.3,0-16.4-3.4-21.3-10.3c-4.9-6.8-7.4-14.3-7.4-22.5C138.9,120.9,139.4,120.6,140.5,120.6z M147,93.9
			c7.1-6.4,18.1-5.5,25,0.5c2.8,2.4,4.7,5.6,5.9,9.1c0.4,1.1,2.7,8.9,0.4,8.9h-37.8c-0.8,0-1.2-0.5-1.2-1.4
			C139.3,104.8,142.3,98.2,147,93.9z"/>
		<path class="st0" d="M312.8,120.6h48.8c2.2,0,3.7-0.3,4.5-0.9c0.8-0.6,1.2-2.2,1.2-4.7c0-3.6-0.5-7.3-1.6-10.9
			c-1.1-3.7-2.8-7.3-5.2-10.8c-2.4-3.5-5.8-6.5-10.4-8.7c-4.5-2.3-9.7-3.4-15.7-3.4c-11,0-20.1,3.9-27.4,11.8
			c-7.3,7.9-10.9,18.6-10.9,32.1c0,11.6,3.8,21.5,11.5,29.5c7.7,8.1,16.9,12.1,27.6,12.1c5.9,0,11.4-1.5,16.5-4.4
			c5-2.9,8.8-6.2,11.4-9.8c0.8-1.3,1.2-2.5,1.2-3.5c0-4.6-3.6-0.7-5.7,0.5c-1.2,0.7-2.7,1.4-4.5,2.1c-1.7,0.7-3.8,1.3-6.3,1.8
			c-2.5,0.5-5,0.8-7.7,0.8c-9.3,0-16.4-3.4-21.3-10.3c-4.9-6.8-7.4-14.3-7.4-22.5C311.3,120.9,311.8,120.6,312.8,120.6z M319.3,93.9
			c7.1-6.4,18.1-5.5,25,0.5c2.8,2.4,4.7,5.6,5.9,9.1c0.4,1.1,2.7,8.9,0.4,8.9h-37.8c-0.8,0-1.2-0.5-1.2-1.4
			C311.7,104.8,314.6,98.2,319.3,93.9z"/>
	</g>
	<path class="st0" d="M281,159.3c-6.5-3-17.7-4.7-33.7-4.9c-5.9-0.1-19.4,0.8-19.4-7.9c0-1.8,0.9-3.9,2.8-6.2
		c1.9-2.3,3.6-3.9,5.3-4.8c3.1,0.5,6.7,0.8,10.8,0.8c9,0,16.7-2.8,22.9-8.3c6.2-5.5,9.3-11.8,9.3-18.8c0-12.4-8.7-22.7-20.5-25.7
		c-1.7-0.4-3.5-0.7-5.2-0.9c-10.7-1.5-21.8,0.5-30.3,7.4c-6.4,5.2-9.6,11.7-9.6,19.3c0,5.4,1.6,10.5,4.9,15.2
		c3.3,4.7,6.9,7.8,10.7,9.2c-3.6,2.3-6.9,5.3-9.8,8.9c-2.9,3.6-4.4,7.1-4.4,10.5c0,3.9,1.5,7.2,4.5,9.9c6.2,5.7,15.2,6.1,23.2,5.8
		c9.1-0.3,18.7-0.5,27.4,2.6c5.3,1.9,7.9,5.5,7.9,10.9c0,5.3-2.5,10-7.5,14.1c-10.1,8.4-26.5,8.1-37.4,1.5
		c-4.1-2.4-7.8-6.3-8.8-11.1c-0.5-2.4-0.1-4.7,0.7-7c0.7-1.9,1-3.6-1.5-4c-8-1.3-13.2,4.7-13.2,12.3c0,7.2,3.6,12.7,10.9,16.3
		c7.3,3.6,15.5,5.4,24.7,5.2c13.2-0.1,23.9-3.8,32.3-10.9c8.4-7.2,12.6-15.7,12.6-25.7C290.7,166.8,287.5,162.3,281,159.3z
		 M228.4,108.2c0-5.4,1.6-10.1,4.9-13.9c6.9-8.1,18.6-7.2,25.4,0.4c3.7,4.1,5.5,9.2,5.5,15.1c0,5.4-1.6,10.1-4.9,13.9
		c-3.3,3.9-7.5,5.8-12.5,5.8c-4.9,0-9.2-2.1-12.9-6.2C230.2,119.2,228.4,114.2,228.4,108.2z"/>
	<path class="st1" d="M285.5,24.2c-1.8,0-3.3,1.5-3.3,3.3c0,1.2,0.6,2.2,1.6,2.8c0,0-0.4,0.7-0.5,0.8c-2.5,4.2-5.1,8.4-7.7,12.6
		c-1.2,1.9-2.4,3.9-3.7,5.8c-1,1.5-2,3-3.3,4.3c-1.1,0.9-2.5,1.8-4,1.1c-2.4-1.1-2.1-4.3-1.4-7.9c0,0,4.9-25.3,6.2-32.4
		c1.7,0.1,3.2-1.1,3.5-2.8c0.3-1.8-1-3.5-2.8-3.8c-1.8-0.3-3.5,1-3.8,2.8c-0.2,1.5,0.6,2.8,1.8,3.4c0,0-1,2.7-1.1,3
		c-3.2,8.8-6.3,17.6-9.6,26.4c-0.5,1.4-1.1,2.9-1.7,4.3c-0.6,1.5-1.9,3.3-3.7,2.3c-1.4-0.8-1.7-2.7-1.8-4.2
		c-0.2-2.3-0.4-4.6-0.6-6.8c-0.1-2.1-0.2-4.2-0.4-6.3c-0.6-7.7-1.3-15.4-1.9-23.1c1.5-0.3,2.7-1.7,2.7-3.3c0-1.9-1.5-3.4-3.4-3.4
		s-3.4,1.5-3.4,3.4c0,1.6,1.2,3,2.7,3.3c-0.6,7.7-1.3,15.4-1.9,23.1c-0.2,2.1-0.3,4.2-0.4,6.3c-0.2,2.3-0.4,4.6-0.6,6.8
		c-0.1,1.5-0.4,3.4-1.8,4.2c-1.8,1-3.2-0.8-3.7-2.3c-0.5-1.4-1.1-2.9-1.7-4.3c-3.3-8.8-6.4-17.6-9.6-26.4c-0.1-0.2-1.1-2.9-1.1-3
		c1.3-0.6,2-2,1.8-3.4C227,9,225.3,7.8,223.5,8c-1.8,0.3-3.1,1.9-2.8,3.8c0.3,1.7,1.8,2.9,3.5,2.8c1.3,7.1,6.2,32.4,6.2,32.4
		c0.7,3.6,1,6.8-1.4,7.9c-1.5,0.7-2.9-0.1-4-1.1c-1.4-1.2-2.3-2.7-3.3-4.3c-1.2-1.9-2.4-3.9-3.7-5.8c-2.6-4.2-5.1-8.4-7.7-12.6
		c0-0.1-0.5-0.8-0.5-0.8c1-0.6,1.6-1.6,1.6-2.8c0-1.8-1.5-3.3-3.3-3.3c-1.8,0-3.3,1.5-3.3,3.3c0,1.8,1.5,3.3,3.3,3.3
		c0.3,0,0.6-0.1,0.9-0.2c0,0,10.6,35.6,10.6,35.6c0.3,0.9,0.5,1.8,0.8,2.7c0.4,1.5,0.8,2.9,1.3,4.4c0.2,0.6,0.3,1.2,0.7,1.6
		c0.4,0.3,0.9,0.5,1.4,0.6c1.4,0.3,2.8-0.1,4.1-0.5c0.1,0,0.1,0,0.2-0.1c1.4-0.5,3.1-1,5.1-1.4c0,0,0,0,0.1,0
		c0.2-0.1,0.5-0.1,0.8-0.1c2.2-0.4,3.8-0.6,3.8-0.6c2.6-0.3,5.6-0.5,9-0.5c3.4,0,6.4,0.2,9,0.5c0,0,1.6,0.2,3.8,0.6
		c0.3,0,0.5,0.1,0.8,0.1c0,0,0,0,0.1,0c2,0.4,3.7,0.9,5.1,1.4c0.1,0,0.1,0,0.2,0.1c1.3,0.4,2.7,0.8,4.1,0.5c0.5-0.1,1-0.3,1.4-0.6
		c0.5-0.4,0.6-1,0.7-1.6c0.4-1.5,0.8-2.9,1.3-4.4c0.3-0.9,0.5-1.8,0.8-2.7c0,0,10.6-35.6,10.6-35.6c0.3,0.1,0.6,0.2,0.9,0.2
		c1.8,0,3.3-1.5,3.3-3.3C288.8,25.7,287.3,24.2,285.5,24.2z M230.7,68.1c-1.8,0-3.2-1.4-3.2-3.2c0-1.8,1.4-3.2,3.2-3.2
		c1.8,0,3.2,1.4,3.2,3.2C233.9,66.7,232.5,68.1,230.7,68.1z M246.8,65.9c-1.8,0-3.2-1.4-3.2-3.2c0-1.8,1.4-3.2,3.2-3.2
		s3.2,1.4,3.2,3.2C250,64.5,248.6,65.9,246.8,65.9z M262.9,68.2c-1.8,0-3.2-1.4-3.2-3.2s1.4-3.2,3.2-3.2c1.8,0,3.2,1.4,3.2,3.2
		S264.6,68.2,262.9,68.2z"/>
	<path class="st2" d="M285.5,24.2c-1.8,0-3.3,1.5-3.3,3.3c0,1.2,0.6,2.2,1.6,2.8c0,0-0.4,0.7-0.5,0.8c-2.5,4.2-5.1,8.4-7.7,12.6
		c-1.2,1.9-2.4,3.9-3.7,5.8c-1,1.5-2,3-3.3,4.3c-1.1,0.9-2.5,1.8-4,1.1c-2.4-1.1-2.1-4.3-1.4-7.9c0,0,4.9-25.3,6.2-32.4
		c1.7,0.1,3.2-1.1,3.5-2.8c0.3-1.8-1-3.5-2.8-3.8c-1.8-0.3-3.5,1-3.8,2.8c-0.2,1.5,0.6,2.8,1.8,3.4c0,0-1,2.7-1.1,3
		c-3.2,8.8-6.3,17.6-9.6,26.4c-0.5,1.4-1.1,2.9-1.7,4.3c-0.6,1.5-1.9,3.3-3.7,2.3c-1.4-0.8-1.7-2.7-1.8-4.2
		c-0.2-2.3-0.4-4.6-0.6-6.8c-0.1-2.1-0.2-4.2-0.4-6.3c-0.6-7.7-1.3-15.4-1.9-23.1c1.5-0.3,2.7-1.7,2.7-3.3c0-1.8-1.5-3.3-3.3-3.4
		v56.4c1.8,0,3.2,1.4,3.2,3.2c0,1.8-1.4,3.2-3.2,3.2v6.5c3.4,0,6.4,0.2,9,0.5c0,0,1.6,0.2,3.8,0.6c0.3,0,0.5,0.1,0.8,0.1
		c0,0,0,0,0.1,0c2,0.4,3.7,0.9,5.1,1.4c0.1,0,0.1,0,0.2,0.1c1.3,0.4,2.7,0.8,4.1,0.5c0.5-0.1,1-0.3,1.4-0.6c0.5-0.4,0.6-1,0.7-1.6
		c0.4-1.5,0.8-2.9,1.3-4.4c0.3-0.9,0.5-1.8,0.8-2.7c0,0,10.6-35.6,10.6-35.6c0.3,0.1,0.6,0.2,0.9,0.2c1.8,0,3.3-1.5,3.3-3.3
		C288.8,25.7,287.3,24.2,285.5,24.2z M262.9,68.2c-1.8,0-3.2-1.4-3.2-3.2s1.4-3.2,3.2-3.2c1.8,0,3.2,1.4,3.2,3.2
		S264.6,68.2,262.9,68.2z"/>
</g>
</svg>
